<svg width="36" height="37" viewBox="0 0 36 37" fill="none" xmlns="http://www.w3.org/2000/svg">
    <mask id="mask0_329_67397" style="mask-type:luminance" maskUnits="userSpaceOnUse" x="0" y="0" width="36" height="37">
        <path d="M36 18.6509C36 8.70975 27.9411 0.650879 18 0.650879C8.05887 0.650879 0 8.70975 0 18.6509C0 28.592 8.05887 36.6509 18 36.6509C27.9411 36.6509 36 28.592 36 18.6509Z" fill="white"/>
    </mask>
    <g mask="url(#mask0_329_67397)">
        <path d="M36 0.650879H0V36.6509H36V0.650879Z" fill="#FFAD08"/>
        <path d="M47.8125 20.3028L26.7285 4.41485C23.8174 2.22119 19.6792 2.80278 17.4855 5.71386L1.59763 26.7978C-0.596039 29.7089 -0.0144511 33.8472 2.89664 36.0408L23.9806 51.9287C26.8917 54.1224 31.0299 53.5408 33.2236 50.6297L49.1115 29.5457C51.3052 26.6347 50.7236 22.4964 47.8125 20.3028Z" fill="#73B06F"/>
        <path d="M16.7812 24.7446C16.9025 25.7318 17.5416 26.6143 18.558 27.198C19.5744 27.7818 20.8848 28.0189 22.201 27.8573C23.5172 27.6957 24.7313 27.1486 25.5763 26.3363C26.4213 25.524 26.8279 24.5131 26.7067 23.5259" fill="black"/>
        <path d="M16.6683 19.7214C16.601 19.1732 16.2132 18.7697 15.802 18.8202C15.3909 18.8707 15.1122 19.356 15.1795 19.9042C15.2468 20.4523 15.6346 20.8558 16.0458 20.8053C16.4569 20.7548 16.7356 20.2695 16.6683 19.7214Z" fill="black"/>
        <path d="M26.5936 18.5021C26.5263 17.954 26.1384 17.5505 25.7273 17.601C25.3162 17.6515 25.0375 18.1368 25.1048 18.6849C25.1721 19.2331 25.5599 19.6366 25.9711 19.5861C26.3822 19.5356 26.6609 19.0503 26.5936 18.5021Z" fill="black"/>
    </g>
</svg>
