<svg width="24" height="25" viewBox="0 0 24 25" fill="none" xmlns="http://www.w3.org/2000/svg">
<rect x="3" y="6.50928" width="18" height="15" rx="2" stroke="#222222"/>
<path d="M3 10.5093C3 8.62366 3 7.68085 3.58579 7.09506C4.17157 6.50928 5.11438 6.50928 7 6.50928H17C18.8856 6.50928 19.8284 6.50928 20.4142 7.09506C21 7.68085 21 8.62366 21 10.5093V10.5093H3V10.5093Z" fill="#222222"/>
<path d="M7 3.50928L7 6.50928" stroke="#222222" stroke-linecap="round"/>
<path d="M17 3.50928L17 6.50928" stroke="#222222" stroke-linecap="round"/>
<rect x="7" y="12.5093" width="4" height="2" rx="0.5" fill="#222222"/>
<rect x="7" y="16.5093" width="4" height="2" rx="0.5" fill="#222222"/>
<rect x="13" y="12.5093" width="4" height="2" rx="0.5" fill="#222222"/>
<rect x="13" y="16.5093" width="4" height="2" rx="0.5" fill="#222222"/>
</svg>
