<svg width="24" height="25" viewBox="0 0 24 25" fill="none" xmlns="http://www.w3.org/2000/svg">
<path d="M13 18.6509C13 17.5463 13.8954 16.6509 15 16.6509C16.1046 16.6509 17 17.5463 17 18.6509M13 18.6509C13 19.7554 13.8954 20.6509 15 20.6509C16.1046 20.6509 17 19.7554 17 18.6509M13 18.6509L4 18.6509M17 18.6509H20M13 6.65088C13 5.54631 13.8954 4.65088 15 4.65088C16.1046 4.65088 17 5.54631 17 6.65088M13 6.65088C13 7.75545 13.8954 8.65088 15 8.65088C16.1046 8.65088 17 7.75545 17 6.65088M13 6.65088L4 6.65088M17 6.65088L20 6.65088M7 12.6509C7 11.5463 7.89543 10.6509 9 10.6509C10.1046 10.6509 11 11.5463 11 12.6509M7 12.6509C7 13.7554 7.89543 14.6509 9 14.6509C10.1046 14.6509 11 13.7554 11 12.6509M7 12.6509L4 12.6509M11 12.6509L20 12.6509" stroke="#344054" stroke-linecap="round" stroke-linejoin="round"/>
</svg>
