<svg width="15" height="15" viewBox="0 0 15 15" fill="none" xmlns="http://www.w3.org/2000/svg">
    <path d="M7.37438 2.84183C7.46936 2.95679 7.6107 3.02336 7.75983 3.02336C7.90896 3.02336 8.0503 2.95679 8.14529 2.84183C9.44295 1.27123 11.5071 0.90901 13.1048 2.28382C14.7415 3.69214 14.9465 6.09096 13.6753 7.78438C13.1103 8.53714 11.9468 9.73674 10.753 10.9033C9.56844 12.0608 8.38406 13.157 7.79891 13.6935C7.78455 13.7067 7.77164 13.7185 7.75983 13.7293C7.74802 13.7185 7.73512 13.7067 7.72075 13.6935C7.1356 13.157 5.95122 12.0608 4.7667 10.9033C3.57287 9.73674 2.40936 8.53714 1.84431 7.78438C0.577368 6.09657 0.802875 3.70976 2.41998 2.27932C3.98152 0.898043 6.07285 1.26656 7.37438 2.84183Z" fill="#ED4C67" stroke="#ED4C67" stroke-linecap="round" stroke-linejoin="round"/>
</svg>
