<svg width="24" height="25" viewBox="0 0 24 25" fill="none" xmlns="http://www.w3.org/2000/svg">
<path d="M6.44784 9.1203C6.76219 6.2912 9.15349 4.15088 12 4.15088V4.15088C14.8465 4.15088 17.2378 6.2912 17.5522 9.1203L17.804 11.3865C17.8072 11.4154 17.8088 11.4298 17.8104 11.4441C17.9394 12.5678 18.3051 13.6514 18.8836 14.6234C18.8909 14.6357 18.8984 14.6482 18.9133 14.6731L19.4914 15.6365C20.0159 16.5108 20.2782 16.9479 20.2216 17.3067C20.1839 17.5455 20.061 17.7626 19.8757 17.9177C19.5971 18.1509 19.0873 18.1509 18.0678 18.1509H5.93223C4.91268 18.1509 4.40291 18.1509 4.12434 17.9177C3.93897 17.7626 3.81609 17.5455 3.77841 17.3067C3.72179 16.9479 3.98407 16.5108 4.50862 15.6365L5.08665 14.6731C5.10161 14.6482 5.10909 14.6357 5.11644 14.6234C5.69488 13.6514 6.06064 12.5678 6.18959 11.4441C6.19123 11.4298 6.19283 11.4154 6.19604 11.3865L6.44784 9.1203Z" stroke="#111111"/>
<path d="M9.10222 18.5567C9.27315 19.301 9.64978 19.9586 10.1737 20.4276C10.6976 20.8966 11.3396 21.1509 12 21.1509C12.6604 21.1509 13.3024 20.8966 13.8263 20.4276C14.3502 19.9586 14.7269 19.301 14.8978 18.5567" stroke="#222222" stroke-linecap="round"/>
</svg>
